<svg xmlns="http://www.w3.org/2000/svg" width="8" height="13" viewBox="0 0 8 13" fill="none">
  <path d="M2.36364 2.9H5.09091M2.36364 2.9V4.4H5.09091V2.9M2.36364 2.9V2C2.36364 1.1 3.18182 0.5 4 0.5H7C7 0.5 5.09091 1.1 5.09091 2.3V2.9M1 5C1 4.84087 1.05747 4.68826 1.15976 4.57574C1.26205 4.46321 1.40079 4.4 1.54545 4.4H5.90909C6.05375 4.4 6.19249 4.46321 6.29479 4.57574C6.39708 4.68826 6.45455 4.84087 6.45455 5V10.7C6.45455 10.7 6.45455 12.5 4.81818 12.5H2.63636C1 12.5 1 10.7 1 10.7V5Z" stroke="#7B7B7B" stroke-linecap="round" stroke-linejoin="round"/>
</svg>