<svg xmlns="http://www.w3.org/2000/svg" width="12" height="13" viewBox="0 0 12 13" fill="none">
  <path fill-rule="evenodd" clip-rule="evenodd" d="M8 2.875H3.42857C1.81257 2.875 1.004 2.875 0.502286 3.42438C-3.40598e-08 3.97313 0 4.8575 0 6.625V9.125C0 10.8925 -3.40598e-08 11.7769 0.502286 12.3256C1.004 12.875 1.81257 12.875 3.42857 12.875H8V2.875Z" fill="#D2D2D2"/>
  <path d="M12 6.04916V8.4795C12 10.1977 12 11.0569 11.4886 11.5909C11.0086 12.0922 10.2534 12.1232 8.80009 12.125H8.50918V2.40366H8.80009C10.2534 2.40548 11.0086 2.43586 11.4886 2.93712C12 3.47179 12 4.33031 12 6.04916ZM7.00581 2.40366L8.25843 0.87741C8.32933 0.785163 8.36311 0.667737 8.35262 0.549956C8.34213 0.432174 8.28819 0.323269 8.20221 0.246261C8.11623 0.169253 8.00495 0.130178 7.89188 0.137297C7.77882 0.144416 7.67283 0.19717 7.59634 0.284408L6.18197 2.00752L4.76819 0.284408C4.69289 0.192558 4.58574 0.135708 4.4703 0.126364C4.35486 0.117021 4.2406 0.155949 4.15264 0.234586C4.06469 0.313223 4.01025 0.425127 4.00131 0.54568C3.99236 0.666233 4.02964 0.785559 4.10494 0.87741L5.35872 2.40366H7.00581Z" fill="#7B7B7B"/>
  <path d="M10.5 5C10.6326 5 10.7598 5.0878 10.8536 5.24408C10.9473 5.40036 11 5.61232 11 5.83333C11 6.05435 10.9473 6.26631 10.8536 6.42259C10.7598 6.57887 10.6326 6.66667 10.5 6.66667C10.3674 6.66667 10.2402 6.57887 10.1464 6.42259C10.0527 6.26631 10 6.05435 10 5.83333C10 5.61232 10.0527 5.40036 10.1464 5.24408C10.2402 5.0878 10.3674 5 10.5 5ZM10.5 8.33333C10.6326 8.33333 10.7598 8.42113 10.8536 8.57741C10.9473 8.73369 11 8.94565 11 9.16667C11 9.38768 10.9473 9.59964 10.8536 9.75592C10.7598 9.9122 10.6326 10 10.5 10C10.3674 10 10.2402 9.9122 10.1464 9.75592C10.0527 9.59964 10 9.38768 10 9.16667C10 8.94565 10.0527 8.73369 10.1464 8.57741C10.2402 8.42113 10.3674 8.33333 10.5 8.33333Z" fill="white"/>
</svg>