<svg xmlns="http://www.w3.org/2000/svg" width="12" height="13" viewBox="0 0 12 13" fill="none">
  <path d="M8.5 11.2534C7.94667 11.2534 7.5 10.6934 7.5 10.0001C7.5 9.31342 7.94667 8.75343 8.5 8.75343C9.05334 8.75343 9.5 9.31342 9.5 10.0001C9.5 10.6934 9.05334 11.2534 8.5 11.2534ZM6 6.00017C5.17334 6.00017 4.50001 5.44019 4.50001 4.75354C4.50001 4.06023 5.17334 3.50024 6 3.50024C6.82667 3.50024 7.5 4.06023 7.5 4.75354C7.5 5.44019 6.82667 6.00017 6 6.00017ZM3.50001 11.2534C2.94667 11.2534 2.50001 10.6934 2.50001 10.0001C2.50001 9.31342 2.94667 8.75343 3.50001 8.75343C4.05334 8.75343 4.50001 9.31342 4.50001 10.0001C4.50001 10.6934 4.05334 11.2534 3.50001 11.2534ZM6 4.00023C6.27334 4.00023 6.5 4.22689 6.5 4.50021C6.5 4.77354 6.27334 5.0002 6 5.0002C5.72667 5.0002 5.5 4.77354 5.5 4.50021C5.5 4.22689 5.72667 4.00023 6 4.00023ZM10.5 6.50016C10.2867 6.50016 10.08 6.54683 9.89334 6.63349C9.57334 6.22683 9.14 5.88018 8.62 5.61352C9 5.0802 9.22667 4.43355 9.22667 3.73357V3.69357C9.95333 3.54024 10.5 2.89359 10.5 2.11361C10.5 1.22697 9.77334 0.50032 8.88667 0.50032C8.42667 0.50032 8 0.693648 7.72 1.00031C7.20584 0.673541 6.60922 0.5 6 0.5C5.39079 0.5 4.79417 0.673541 4.28001 1.00031C4.00001 0.693648 3.57334 0.50032 3.11334 0.50032C2.22667 0.50032 1.50001 1.22697 1.50001 2.11361C1.50001 2.88692 2.04667 3.53357 2.76667 3.69357V3.73357C2.76667 4.43355 3.00001 5.08686 3.37334 5.61352C2.86001 5.88018 2.42667 6.22683 2.10667 6.63349C1.87885 6.53087 1.62892 6.48705 1.37977 6.50605C1.13062 6.52505 0.890223 6.60626 0.680599 6.74225C0.470974 6.87824 0.298824 7.06465 0.179919 7.28441C0.0610139 7.50417 -0.000845116 7.75026 8.72054e-06 8.00012C8.72054e-06 8.83343 0.666675 9.50008 1.50001 9.50008H1.54001C1.51334 9.66008 1.50001 9.8334 1.50001 10.0001C1.50001 11.38 2.39334 12.5 3.50001 12.5C4.17334 12.5 4.76667 12.08 5.13334 11.44C5.41334 11.48 5.7 11.5 6 11.5C6.3 11.5 6.58667 11.48 6.86667 11.44C7.23334 12.08 7.82667 12.5 8.5 12.5C9.60667 12.5 10.5 11.38 10.5 10.0001C10.5 9.8334 10.4867 9.66008 10.46 9.50008H10.5C11.3333 9.50008 12 8.83343 12 8.00012C12 7.16681 11.3333 6.50016 10.5 6.50016Z" fill="#7B7B7B"/>
</svg>