<svg xmlns="http://www.w3.org/2000/svg" width="8" height="13" viewBox="0 0 8 13" fill="none">
  <path d="M6.4 1.25C6.61217 1.25 6.81566 1.32902 6.96569 1.46967C7.11571 1.61032 7.2 1.80109 7.2 2V11C7.2 11.1989 7.11571 11.3897 6.96569 11.5303C6.81566 11.671 6.61217 11.75 6.4 11.75H1.6C1.38783 11.75 1.18434 11.671 1.03431 11.5303C0.884286 11.3897 0.8 11.1989 0.8 11V2C0.8 1.80109 0.884286 1.61032 1.03431 1.46967C1.18434 1.32902 1.38783 1.25 1.6 1.25H6.4ZM1.6 0.5C1.17565 0.5 0.768687 0.658035 0.468629 0.93934C0.168571 1.22064 0 1.60218 0 2V11C0 11.3978 0.168571 11.7794 0.468629 12.0607C0.768687 12.342 1.17565 12.5 1.6 12.5H6.4C6.82435 12.5 7.23131 12.342 7.53137 12.0607C7.83143 11.7794 8 11.3978 8 11V2C8 1.60218 7.83143 1.22064 7.53137 0.93934C7.23131 0.658035 6.82435 0.5 6.4 0.5H1.6Z" fill="#7B7B7B"/>
  <path d="M4 11C4.26522 11 4.51957 10.8946 4.70711 10.7071C4.89464 10.5196 5 10.2652 5 10C5 9.73478 4.89464 9.48043 4.70711 9.29289C4.51957 9.10536 4.26522 9 4 9C3.73478 9 3.48043 9.10536 3.29289 9.29289C3.10536 9.48043 3 9.73478 3 10C3 10.2652 3.10536 10.5196 3.29289 10.7071C3.48043 10.8946 3.73478 11 4 11Z" fill="#7B7B7B"/>
</svg>