<svg xmlns="http://www.w3.org/2000/svg" width="93" height="16" viewBox="0 0 93 16" fill="none">
  <path d="M61.9893 15.7668C61.6256 16.0691 61.2539 16.0775 60.8744 15.792C60.4949 15.5066 60.3684 15.1288 60.4949 14.6586L61.8469 9.9991L58.4076 7.40488C58.0281 7.11943 57.9136 6.74163 58.0641 6.27148C58.214 5.80133 58.5183 5.56625 58.9769 5.56625H63.2227L64.5984 0.730413C64.6775 0.495337 64.8002 0.314666 64.9665 0.188396C65.1323 0.062799 65.31 0 65.4998 0C65.6895 0 65.8673 0.062799 66.033 0.188396C66.1993 0.314666 66.322 0.495337 66.4011 0.730413L67.7768 5.56625H72.0227C72.4812 5.56625 72.7858 5.80133 72.9363 6.27148C73.0862 6.74163 72.9714 7.11943 72.5919 7.40488L69.1526 9.9991L70.5046 14.6586C70.6311 15.1288 70.5046 15.5066 70.1251 15.792C69.7456 16.0775 69.374 16.0691 69.0103 15.7668L65.4998 12.9208L61.9893 15.7668Z" fill="#FFB133"/>
  <path d="M92.0963 5.35506L87.2894 4.94445L85.4123 0.593921C85.0746 -0.197974 83.9225 -0.197974 83.5848 0.593921L81.7077 4.95423L76.9107 5.35506C76.0367 5.4235 75.6792 6.49891 76.3446 7.06595L79.9895 10.1749L78.897 14.7894C78.6984 15.6301 79.6221 16.2949 80.3769 15.8452L84.4985 13.4011L88.6202 15.855C89.375 16.3047 90.2987 15.6399 90.1 14.7991L89.0076 10.1749L92.6525 7.06595C93.3179 6.49891 92.9703 5.4235 92.0963 5.35506ZM84.4985 11.5729L80.7642 13.7922L81.7574 9.60783L78.46 6.79221L82.8102 6.4207L84.4985 2.48078L86.1969 6.43048L90.547 6.80198L87.2496 9.61761L88.2428 13.8019L84.4985 11.5729Z" fill="#FFB133"/>
  <path d="M4.52115 15.7668C4.10896 16.0691 3.68781 16.0775 3.25769 15.792C2.82757 15.5066 2.6842 15.1288 2.82757 14.6586L4.35986 9.9991L0.461938 7.40488C0.0318224 7.11943 -0.0979292 6.74163 0.0726834 6.27148C0.242579 5.80133 0.587388 5.56625 1.10711 5.56625H5.91903L7.4782 0.730413C7.56781 0.495337 7.70688 0.314666 7.89541 0.188396C8.08323 0.062799 8.28467 0 8.49972 0C8.71478 0 8.91622 0.062799 9.10404 0.188396C9.29257 0.314666 9.43164 0.495337 9.52125 0.730413L11.0804 5.56625H15.8923C16.4121 5.56625 16.7572 5.80133 16.9278 6.27148C17.0977 6.74163 16.9676 7.11943 16.5375 7.40488L12.6396 9.9991L14.1719 14.6586C14.3152 15.1288 14.1719 15.5066 13.7418 15.792C13.3116 16.0775 12.8905 16.0691 12.4783 15.7668L8.49972 12.9208L4.52115 15.7668Z" fill="#FFB133"/>
  <path d="M43.5212 15.7668C43.109 16.0691 42.6878 16.0775 42.2577 15.792C41.8276 15.5066 41.6842 15.1288 41.8276 14.6586L43.3599 9.9991L39.4619 7.40488C39.0318 7.11943 38.9021 6.74163 39.0727 6.27148C39.2426 5.80133 39.5874 5.56625 40.1071 5.56625H44.919L46.4782 0.730413C46.5678 0.495337 46.7069 0.314666 46.8954 0.188396C47.0832 0.062799 47.2847 0 47.4997 0C47.7148 0 47.9162 0.062799 48.104 0.188396C48.2926 0.314666 48.4316 0.495337 48.5212 0.730413L50.0804 5.56625H54.8923C55.4121 5.56625 55.7572 5.80133 55.9278 6.27148C56.0977 6.74163 55.9676 7.11943 55.5375 7.40488L51.6396 9.9991L53.1719 14.6586C53.3152 15.1288 53.1719 15.5066 52.7418 15.792C52.3116 16.0775 51.8905 16.0691 51.4783 15.7668L47.4997 12.9208L43.5212 15.7668Z" fill="#FFB133"/>
  <path d="M23.9893 15.7668C23.6256 16.0691 23.2539 16.0775 22.8744 15.792C22.4949 15.5066 22.3684 15.1288 22.4949 14.6586L23.8469 9.9991L20.4076 7.40488C20.0281 7.11943 19.9136 6.74163 20.0641 6.27148C20.214 5.80133 20.5183 5.56625 20.9769 5.56625H25.2227L26.5984 0.730413C26.6775 0.495337 26.8002 0.314666 26.9665 0.188396C27.1323 0.062799 27.31 0 27.4998 0C27.6895 0 27.8673 0.062799 28.033 0.188396C28.1993 0.314666 28.322 0.495337 28.4011 0.730413L29.7768 5.56625H34.0227C34.4812 5.56625 34.7858 5.80133 34.9363 6.27148C35.0862 6.74163 34.9714 7.11943 34.5919 7.40488L31.1526 9.9991L32.5046 14.6586C32.6311 15.1288 32.5046 15.5066 32.1251 15.792C31.7456 16.0775 31.374 16.0691 31.0103 15.7668L27.4998 12.9208L23.9893 15.7668Z" fill="#FFB133"/>
</svg>