<svg xmlns="http://www.w3.org/2000/svg" width="11" height="11" viewBox="0 0 11 11" fill="none">
  <path d="M9.81015 5.9686L10.3605 5.0174C10.4267 4.90296 10.4447 4.76693 10.4106 4.63923C10.3764 4.51152 10.293 4.4026 10.1786 4.3364L9.22637 3.78602V2.68924C9.22637 2.55703 9.17384 2.43022 9.08035 2.33673C8.98686 2.24324 8.86005 2.19071 8.72783 2.19071H7.63155L7.08166 1.23901C7.01559 1.12451 6.90673 1.04095 6.77905 1.00669C6.7158 0.989743 6.64982 0.985422 6.5849 0.993976C6.51997 1.00253 6.45737 1.02379 6.40066 1.05655L5.44846 1.60693L4.49625 1.05605C4.38175 0.989941 4.24568 0.972026 4.11796 1.00624C3.99025 1.04046 3.88136 1.12401 3.81525 1.23851L3.26487 2.19071H2.16859C2.03637 2.19071 1.90956 2.24324 1.81607 2.33673C1.72257 2.43022 1.67005 2.55703 1.67005 2.68924V3.78552L0.717846 4.3359C0.661126 4.36868 0.611423 4.41231 0.571577 4.46431C0.531731 4.51631 0.502523 4.57565 0.485624 4.63894C0.468725 4.70223 0.464465 4.76823 0.473088 4.83317C0.481711 4.89811 0.503048 4.96071 0.53588 5.0174L1.08626 5.9686L0.53588 6.9198C0.470067 7.03435 0.452211 7.17028 0.486205 7.29794C0.520198 7.4256 0.603284 7.53465 0.717347 7.6013L1.66955 8.15168V9.24796C1.66955 9.38018 1.72208 9.50698 1.81557 9.60047C1.90906 9.69397 2.03587 9.74649 2.16809 9.74649H3.26487L3.81525 10.6987C3.85939 10.7741 3.92241 10.8368 3.9981 10.8805C4.0738 10.9242 4.15958 10.9475 4.24699 10.948C4.33373 10.948 4.41998 10.925 4.49675 10.8807L5.44796 10.3303L6.40016 10.8807C6.51461 10.9468 6.65064 10.9648 6.77834 10.9307C6.90605 10.8965 7.01497 10.8131 7.08117 10.6987L7.63105 9.74649H8.72733C8.85955 9.74649 8.98636 9.69397 9.07985 9.60047C9.17334 9.50698 9.22587 9.38018 9.22587 9.24796V8.15168L10.1781 7.6013C10.2348 7.56852 10.2845 7.52489 10.3243 7.47289C10.3642 7.4209 10.3934 7.36156 10.4103 7.29826C10.4272 7.23497 10.4315 7.16897 10.4228 7.10403C10.4142 7.03909 10.3929 6.97649 10.36 6.9198L9.81015 5.9686ZM4.20162 3.47095C4.40001 3.47101 4.59026 3.54989 4.7305 3.69022C4.87074 3.83055 4.94949 4.02085 4.94942 4.21925C4.94936 4.41764 4.87048 4.60788 4.73015 4.74812C4.58981 4.88836 4.39952 4.96711 4.20112 4.96705C4.00272 4.96698 3.81248 4.88811 3.67224 4.74777C3.532 4.60744 3.45325 4.41714 3.45331 4.21875C3.45338 4.02035 3.53226 3.83011 3.67259 3.68987C3.81293 3.54963 4.00322 3.47088 4.20162 3.47095ZM4.35118 8.25687L3.55352 7.65913L6.54474 3.67086L7.3424 4.2686L4.35118 8.25687ZM6.6943 8.45629C6.59606 8.45625 6.4988 8.43687 6.40805 8.39925C6.31731 8.36163 6.23486 8.3065 6.16542 8.23701C6.09598 8.16752 6.04091 8.08504 6.00334 7.99427C5.96578 7.9035 5.94646 7.80622 5.9465 7.70799C5.94653 7.60975 5.96591 7.51248 6.00353 7.42174C6.04116 7.33099 6.09629 7.24855 6.16577 7.17911C6.23526 7.10967 6.31774 7.05459 6.40851 7.01703C6.49928 6.97947 6.59656 6.96015 6.6948 6.96019C6.8932 6.96025 7.08344 7.03913 7.22368 7.17946C7.36392 7.31979 7.44267 7.51009 7.4426 7.70849C7.44254 7.90688 7.36366 8.09712 7.22333 8.23736C7.08299 8.3776 6.8927 8.45635 6.6943 8.45629Z" fill="#BB3C41"/>
</svg>