<svg xmlns="http://www.w3.org/2000/svg" width="5" height="13" viewBox="0 0 5 13" fill="none">
  <path d="M4.95461 11.8986C4.89726 12.7237 0.101246 12.6769 0.0403345 11.8986C-0.13556 7.65101 0.567367 6.04922 0.789532 4.58798C0.843292 4.23495 0.369991 3.6074 0.252041 3.17086C-2.04891e-07 2.24843 0.361031 1.44229 0 0.681644L0.520786 0.5C0.814631 1.5583 1.58986 2.31427 2.5 2.31427C3.41017 2.31427 4.18537 1.5583 4.47921 0.5L5 0.681617C4.63897 1.44229 5 2.2484 4.74796 3.17084C4.62851 3.6074 4.15552 4.23492 4.21047 4.58798C4.42755 6.04951 5.1305 7.6513 4.95461 11.8986Z" fill="#BB3C41"/>
</svg>