<svg xmlns="http://www.w3.org/2000/svg" width="24" height="24" viewBox="0 0 24 24" fill="none">
  <g clip-path="url(#clip0_793_11639)">
    <path d="M21.999 6.01809C21.25 6.36447 20.4556 6.59196 19.6423 6.69302C20.4996 6.157 21.1412 5.31342 21.4476 4.31947C20.6431 4.82003 19.761 5.17083 18.8416 5.36059C18.2241 4.66984 17.4056 4.21173 16.5133 4.05748C15.621 3.90323 14.705 4.06148 13.9076 4.50764C13.1103 4.9538 12.4762 5.66286 12.1041 6.52459C11.732 7.38632 11.6426 8.35244 11.8499 9.27275C10.2183 9.18726 8.62219 8.74401 7.16512 7.97177C5.70805 7.19953 4.42261 6.11558 3.39227 4.79028C3.02756 5.44516 2.83591 6.18962 2.83693 6.9474C2.83693 8.43472 3.56103 9.74869 4.66189 10.518C4.01041 10.4966 3.37327 10.3126 2.80357 9.98153V10.0349C2.80377 11.0254 3.13164 11.9854 3.7316 12.7521C4.33156 13.5188 5.16668 14.045 6.09537 14.2414C5.4906 14.4128 4.85646 14.438 4.24097 14.3153C4.50281 15.1679 5.01315 15.9136 5.70054 16.4479C6.38793 16.9822 7.21794 17.2784 8.07437 17.295C7.2232 17.9939 6.2486 18.5105 5.20632 18.8154C4.16403 19.1202 3.0745 19.2073 2 19.0716C3.87568 20.3327 6.05916 21.0022 8.28925 21C15.8373 21 19.9651 14.463 19.9651 8.79373C19.9651 8.6091 19.9602 8.42241 19.9523 8.23983C20.7558 7.63277 21.4492 6.88075 22 6.01911L21.999 6.01809Z" fill="#BB3B40"/>
  </g>
  <defs>
    <clipPath id="clip0_793_11639">
      <rect width="24" height="24" fill="white"/>
    </clipPath>
  </defs>
</svg>